<?xml version="1.0" standalone="no"?><svg xmlns="http://www.w3.org/2000/svg" viewBox="0 0 1440 320"><path fill="#a2d9ff" fill-opacity="1" d="M0,96L20,101.3C40,107,80,117,120,133.3C160,149,200,171,240,176C280,181,320,171,360,170.7C400,171,440,181,480,208C520,235,560,277,600,266.7C640,256,680,192,720,165.3C760,139,800,149,840,149.3C880,149,920,139,960,138.7C1000,139,1040,149,1080,133.3C1120,117,1160,75,1200,80C1240,85,1280,139,1320,181.3C1360,224,1400,256,1420,272L1440,288L1440,320L1420,320C1400,320,1360,320,1320,320C1280,320,1240,320,1200,320C1160,320,1120,320,1080,320C1040,320,1000,320,960,320C920,320,880,320,840,320C800,320,760,320,720,320C680,320,640,320,600,320C560,320,520,320,480,320C440,320,400,320,360,320C320,320,280,320,240,320C200,320,160,320,120,320C80,320,40,320,20,320L0,320Z"></path></svg>